<?xml version="1.0" encoding="UTF-8" standalone="no"?>
<svg
   xmlns:osb="http://www.openswatchbook.org/uri/2009/osb"
   xmlns:dc="http://purl.org/dc/elements/1.1/"
   xmlns:cc="http://creativecommons.org/ns#"
   xmlns:rdf="http://www.w3.org/1999/02/22-rdf-syntax-ns#"
   xmlns:svg="http://www.w3.org/2000/svg"
   xmlns="http://www.w3.org/2000/svg"
   xmlns:sodipodi="http://sodipodi.sourceforge.net/DTD/sodipodi-0.dtd"
   xmlns:inkscape="http://www.inkscape.org/namespaces/inkscape"
   width="1440"
   height="500"
   viewBox="0 0 1440 500"
   version="1.1"
   id="svg871"
   sodipodi:docname="hugofdeath.svg"
   inkscape:version="0.92.3 (2405546, 2018-03-11)"
   inkscape:export-filename="/home/ash/Downloads/jeffail2.png"
   inkscape:export-xdpi="384"
   inkscape:export-ydpi="384">
  <metadata
     id="metadata875">
    <rdf:RDF>
      <cc:Work
         rdf:about="">
        <dc:format>image/svg+xml</dc:format>
        <dc:type
           rdf:resource="http://purl.org/dc/dcmitype/StillImage" />
        <dc:title />
      </cc:Work>
    </rdf:RDF>
  </metadata>
  <sodipodi:namedview
     pagecolor="#ffffff"
     bordercolor="#000000"
     borderopacity="1"
     objecttolerance="10"
     gridtolerance="10"
     guidetolerance="10"
     inkscape:pageopacity="0"
     inkscape:pageshadow="2"
     inkscape:window-width="2560"
     inkscape:window-height="1376"
     id="namedview873"
     showgrid="false"
     inkscape:zoom="0.45185472"
     inkscape:cx="862.55706"
     inkscape:cy="404.49881"
     inkscape:window-x="2560"
     inkscape:window-y="27"
     inkscape:window-maximized="1"
     inkscape:current-layer="svg871"
     inkscape:pagecheckerboard="false"
     showguides="false"
     inkscape:snap-nodes="false" />
  <defs
     id="defs865">
    <inkscape:perspective
       sodipodi:type="inkscape:persp3d"
       inkscape:vp_x="0 : 44.5 : 1"
       inkscape:vp_y="0 : 1000 : 0"
       inkscape:vp_z="203 : 44.5 : 1"
       inkscape:persp3d-origin="101.5 : 29.666667 : 1"
       id="perspective955" />
    <linearGradient
       id="linearGradient1080"
       osb:paint="solid">
      <stop
         style="stop-color:#ffffff;stop-opacity:1;"
         offset="0"
         id="stop1078" />
    </linearGradient>
  </defs>
  <circle
     cy="455.91565"
     cx="151.39557"
     id="circle1151"
     style="opacity:1;fill:#c0a07f;fill-opacity:1;stroke:none;stroke-width:1.08823526;stroke-linecap:round;stroke-linejoin:miter;stroke-miterlimit:4;stroke-dasharray:none;stroke-dashoffset:0;stroke-opacity:1;paint-order:normal"
     r="0" />
  <g
     inkscape:export-ydpi="201.99107"
     inkscape:export-xdpi="201.99107"
     inkscape:export-filename="/home/ash/Downloads/barrymoji.png"
     style="fill:#cb9d6c;fill-opacity:1"
     transform="matrix(-1.9730282,0,0,1.9730282,649.21384,257.75183)"
     id="g4717" />
  <g
     style="fill:#28bbbb;fill-opacity:1"
     transform="matrix(1.0522167,0,0,1.1968779,87.606262,477.93217)"
     id="g1842" />
  <g
     id="g1945"
     transform="matrix(1.0522167,0,0,1.1968779,89.727582,563.49209)"
     style="fill:#28bbbb;fill-opacity:1" />
  <g
     transform="translate(72.681074,396.6967)"
     id="g4087"
     style="stroke:#ffffff;stroke-opacity:1" />
  <g
     style="stroke:#ffffff;stroke-opacity:1"
     transform="translate(71.77465,396.6967)"
     id="g4095" />
  <g
     id="g1514"
     transform="translate(-1.3146298e-5)">
    <path
       sodipodi:nodetypes="czzzzzzzzzzsczzc"
       inkscape:connector-curvature="0"
       id="path14219"
       d="m 795.51307,384.0225 c 24.19721,3.49777 61.24146,-10.28614 74.43421,-20.02042 13.1931,-9.7335 25.86588,-16.69166 36.39745,-25.76156 10.53157,-9.06985 17.99056,-22.24999 19.05387,-34.22136 1.06313,-11.97148 -1.97274,-19.00162 -10.9335,-27.83353 -8.96076,-8.83195 -23.67127,-18.25382 -41.44119,-39.30886 -17.77027,-21.05503 -26.62475,-42.05508 -33.6574,-58.26913 -7.03246,-16.2141 -7.87795,-34.37684 -6.22615,-47.09719 1.65179,-12.72036 13.20434,-36.999542 -1.83238,-42.504674 -15.0369,-5.505149 -42.40314,2.716107 -46.22038,16.698844 -3.81741,13.98274 -3.81671,32.14139 -4.41978,46.68678 -0.60288,14.54539 12.66663,21.70659 17.36817,35.13338 9.40345,26.85386 13.08946,64.17297 13.39213,86.64706 -0.95966,23.92682 -35.29478,27.28048 -34.46739,51.19229 0.82721,23.91186 -5.64488,55.16055 18.55234,58.65837 z"
       style="fill:#000000;fill-opacity:1;stroke:none;stroke-width:4.76992702;stroke-linecap:butt;stroke-linejoin:miter;stroke-miterlimit:4;stroke-dasharray:none;stroke-opacity:1" />
    <path
       style="fill:#96e6d9;fill-opacity:1;stroke:none;stroke-width:4.68470144;stroke-linecap:butt;stroke-linejoin:miter;stroke-miterlimit:4;stroke-dasharray:none;stroke-opacity:1"
       d="m 799.47646,383.8327 c 23.56886,3.46385 59.65133,-10.18636 72.50153,-19.82619 12.85037,-9.63901 25.19412,-16.5297 35.45236,-25.51157 10.25806,-8.9819 17.52346,-22.03409 18.55901,-33.88935 1.03574,-11.85529 -1.92126,-18.81723 -10.64944,-27.56345 -8.72818,-8.74623 -23.05661,-18.0767 -40.36541,-38.92743 -17.30862,-20.85073 -31.04207,-40.82692 -37.89202,-56.88368 -6.84994,-16.05675 -7.94242,-36.50362 -6.33348,-49.10054 1.60893,-12.59691 11.786,-36.640556 -0.17216,-41.27215 -11.95746,-4.631647 -37.5377,3.509857 -41.25603,17.35693 -3.71817,13.84707 -3.71746,31.82955 -4.30489,46.2338 -0.58726,14.40423 12.33778,21.49597 16.91723,34.79246 9.15927,26.59333 12.74954,63.55031 13.04431,85.80634 -0.93455,23.69468 -34.37816,27.0158 -33.57237,50.69561 0.80578,23.67986 -5.4982,54.62535 18.07066,58.08922 z"
       id="path14221"
       inkscape:connector-curvature="0"
       sodipodi:nodetypes="czzzzzzzzzzsczzc" />
    <path
       sodipodi:nodetypes="zzzzzzzzzzzsczz"
       inkscape:connector-curvature="0"
       id="path14223"
       d="m 869.39077,386.26777 c 22.64608,7.39225 24.62848,3.89281 38.92143,-3.43978 14.29312,-7.33177 27.62271,-12.04011 39.24974,-19.16171 11.62703,-7.12159 20.99095,-18.76026 24.01277,-30.27065 3.02182,-11.51037 -3.41057,-30.46557 -8.05274,-42.76791 -4.64217,-12.30228 -8.90876,-29.99043 -12.78819,-43.80177 -3.87925,-13.81136 -9.45386,-39.9261 -11.28694,-51.38765 -1.83308,-11.46157 -9.34547,-28.37608 -2.18055,-41.9594 7.16474,-13.58333 33.60417,-40.41293 12.22939,-50.7327 -21.37478,-10.319771 -37.81718,-3.194974 -46.01836,14.49047 -8.20118,17.68544 -15.53597,31.57641 -19.28417,48.34914 -3.7482,16.77273 9.36796,21.63673 11.63757,35.51543 4.53923,27.75771 10.66684,58.5725 7.20076,80.55892 -4.92043,23.19702 -38.44484,20.82566 -41.64742,44.30176 -3.20258,23.47611 -14.63937,52.91362 8.00671,60.30585 z"
       style="fill:#96e6d9;fill-opacity:1;stroke:none;stroke-width:4.68470144;stroke-linecap:butt;stroke-linejoin:miter;stroke-miterlimit:4;stroke-dasharray:none;stroke-opacity:1" />
    <path
       sodipodi:nodetypes="zszzczz"
       inkscape:connector-curvature="0"
       id="path14225"
       d="m 474.26094,356.16732 c 28.96955,52.45398 73.75895,35.4448 93.36195,33.94922 15.85463,-1.20954 42.71179,-13.75905 78.07807,-12.95866 35.36646,0.8002 50.67722,6.3151 81.06897,9.35333 30.39193,3.03806 74.6206,80.7752 170.49985,60.86348 C 1023.9694,420.73147 965.92123,42.465719 736.81262,40.725828 507.7042,38.985919 445.29103,303.71352 474.26094,356.16732 Z"
       style="fill:#ffc7c7;fill-opacity:1;fill-rule:evenodd;stroke:none;stroke-width:1.73961294"
       inkscape:export-filename="/home/ash/Downloads/gopher_benthos.png"
       inkscape:export-xdpi="173.51286"
       inkscape:export-ydpi="173.51286" />
    <g
       id="g14249"
       transform="matrix(6.4233209,1.6799468,-1.6799468,6.4233209,815.25467,-757.62522)">
      <path
         sodipodi:nodetypes="cszzzzzszszc"
         inkscape:connector-curvature="0"
         id="path14227"
         d="m 8.1044741,142.94171 c 0.216042,-0.14647 6.9476509,-5.63435 13.0094799,-5.74633 4.111955,-0.0765 7.560345,-0.51357 12.552087,1.55116 4.991732,2.06495 10.614035,6.10999 10.760445,6.19962 0.14638,0.0892 0.24354,0.5982 0.13774,0.82525 -0.10579,0.22673 -0.44769,0.15871 -0.57062,0.0776 -0.12295,-0.0814 -6.247324,-3.71399 -10.484985,-5.46672 -4.23766,-1.75273 -7.87492,-1.547 -12.552076,-1.55116 -6.062888,-0.007 -12.1911639,5.02803 -12.3867999,5.06296 -0.195658,0.0412 -0.662729,0.17525 -0.783266,-0.10721 -0.100386,-0.23442 0.101974,-0.69929 0.318016,-0.84537 z"
         style="opacity:1;fill:#b06264;fill-opacity:1;stroke:none;stroke-width:0.2448387;stroke-linecap:round;stroke-miterlimit:4;stroke-dasharray:none;stroke-opacity:1" />
      <path
         style="opacity:1;fill:#fffefe;fill-opacity:1;stroke:none;stroke-width:0.91057765;stroke-linecap:round;stroke-miterlimit:4;stroke-dasharray:none;stroke-opacity:1"
         d="m 18.07067,130.45115 a 5.1994305,5.2845316 0.12912279 0 1 -5.133011,5.35161 5.1994305,5.2845316 0.12912279 0 1 -5.2650189,-5.21659 5.1994305,5.2845316 0.12912279 0 1 5.1330159,-5.35165 5.1994305,5.2845316 0.12912279 0 1 5.265014,5.21663 z"
         id="path14229"
         inkscape:connector-curvature="0" />
      <path
         style="fill:#000000;fill-opacity:1;stroke:none;stroke-width:1.07336783;stroke-miterlimit:4;stroke-dasharray:none;stroke-opacity:1"
         d="m 13.107908,134.69345 c -2.241594,0.13689 -4.1683809,-1.5977 -4.3048649,-3.87584 -0.136521,-2.2781 1.5689629,-4.23799 3.8103299,-4.3787 2.241358,-0.14055 4.170881,1.59095 4.311357,3.87549 0.133292,2.28492 -1.575244,4.242 -3.816822,4.37905 z"
         id="path14231"
         inkscape:connector-curvature="0"
         sodipodi:nodetypes="ssscs"
         inkscape:export-filename="/home/ash/Downloads/benthos.png"
         inkscape:export-xdpi="250.44547"
         inkscape:export-ydpi="250.44547" />
      <path
         style="fill:#ffffff;fill-opacity:1;stroke:none;stroke-width:0.59220499px;stroke-linecap:butt;stroke-linejoin:miter;stroke-opacity:1"
         d="m 13.553519,127.89353 c 0.391116,-0.53609 1.813031,-0.0602 2.311122,0.83111 0.498089,0.89095 0.493678,2.25983 -0.33173,2.53615 -0.825488,0.27592 -0.765065,-0.79935 -1.197677,-1.55733 -0.432733,-0.75801 -1.172981,-1.27384 -0.78176,-1.80976 z"
         id="path14233"
         inkscape:connector-curvature="0"
         sodipodi:nodetypes="zzzzz" />
      <ellipse
         style="opacity:1;fill:#ffffff;fill-opacity:1;stroke:none;stroke-width:2.6819427;stroke-linecap:round;stroke-linejoin:miter;stroke-miterlimit:4;stroke-dasharray:none;stroke-dashoffset:0;stroke-opacity:1"
         id="ellipse14235"
         cx="26.213116"
         cy="131.07529"
         rx="0.5282039"
         ry="0.6413818"
         transform="matrix(0.99826127,0.05894442,-0.08221311,0.99661477,0,0)" />
      <path
         inkscape:connector-curvature="0"
         id="path14237"
         d="m 29.827617,130.04291 a 6.7529665,7.1085864 85.954687 0 1 -6.660206,7.19459 6.7529665,7.1085864 85.954687 0 1 -7.52701,-6.27266 6.7529665,7.1085864 85.954687 0 1 6.648197,-7.20465 6.7529665,7.1085864 85.954687 0 1 7.537621,6.26114"
         style="fill:#ffc7c7;fill-opacity:1;stroke:none;stroke-width:0.24688239" />
      <path
         sodipodi:nodetypes="cccczcccczc"
         inkscape:connector-curvature="0"
         id="path14239"
         d="m 29.235752,132.42957 c -0.83294,2.48023 -3.194576,4.35286 -6.08684,4.5401 -3.759757,0.24406 -6.994371,-2.45237 -7.226625,-6.024 -0.105893,-1.62932 0.431332,-3.15974 1.40388,-4.36593 0,0 0.612462,-0.69166 0.24205,-0.9855 -0.370402,-0.294 -0.897853,0.53034 -0.897853,0.53034 -1.082507,1.34874 -1.679752,3.0574 -1.561163,4.87616 0.261576,3.99718 3.882116,7.014 8.089936,6.74086 3.24156,-0.21023 5.88755,-2.31175 6.816577,-5.09346 0,0 0.218096,-0.56995 -0.164377,-0.7067 -0.382463,-0.13676 -0.615627,0.48813 -0.615627,0.48813 z"
         style="fill:#b06264;fill-opacity:1;stroke:none;stroke-width:0.26536983" />
      <path
         inkscape:connector-curvature="0"
         id="path14241"
         d="m 40.744956,130.40002 a 5.1994308,5.2845318 0.129123 0 1 -5.133011,5.35161 5.1994308,5.2845318 0.129123 0 1 -5.265019,-5.21659 5.1994308,5.2845318 0.129123 0 1 5.133017,-5.35165 5.1994308,5.2845318 0.129123 0 1 5.265013,5.21663 z"
         style="opacity:1;fill:#fffefe;fill-opacity:1;stroke:none;stroke-width:0.91057771;stroke-linecap:round;stroke-miterlimit:4;stroke-dasharray:none;stroke-opacity:1" />
      <path
         inkscape:export-ydpi="250.44547"
         inkscape:export-xdpi="250.44547"
         inkscape:export-filename="/home/ash/Downloads/benthos.png"
         sodipodi:nodetypes="ssscs"
         inkscape:connector-curvature="0"
         id="path14243"
         d="m 35.782194,134.64233 c -2.241594,0.13691 -4.168382,-1.5977 -4.304865,-3.87585 -0.136515,-2.2781 1.568963,-4.23799 3.81033,-4.3787 2.241358,-0.14059 4.170881,1.59095 4.311357,3.87549 0.133294,2.28493 -1.575244,4.242 -3.816822,4.37906 z"
         style="fill:#000000;fill-opacity:1;stroke:none;stroke-width:1.07336783;stroke-miterlimit:4;stroke-dasharray:none;stroke-opacity:1" />
      <path
         sodipodi:nodetypes="zzzzz"
         inkscape:connector-curvature="0"
         id="path14245"
         d="m 36.227805,127.84241 c 0.391117,-0.53609 1.81303,-0.0601 2.311123,0.83111 0.498088,0.89094 0.493677,2.25982 -0.331731,2.53614 -0.825488,0.27593 -0.765065,-0.79934 -1.197676,-1.55732 -0.432734,-0.75801 -1.172982,-1.27384 -0.781761,-1.80977 z"
         style="fill:#ffffff;fill-opacity:1;stroke:none;stroke-width:0.59220499px;stroke-linecap:butt;stroke-linejoin:miter;stroke-opacity:1" />
      <ellipse
         transform="matrix(0.99826127,0.05894442,-0.08221311,0.99661477,0,0)"
         ry="0.64138186"
         rx="0.5282039"
         cy="129.68732"
         cx="48.812588"
         id="ellipse14247"
         style="opacity:1;fill:#ffffff;fill-opacity:1;stroke:none;stroke-width:2.6819427;stroke-linecap:round;stroke-linejoin:miter;stroke-miterlimit:4;stroke-dasharray:none;stroke-dashoffset:0;stroke-opacity:1" />
    </g>
    <path
       style="fill:#96e6d9;fill-opacity:1;stroke:none;stroke-width:4.70504284;stroke-linecap:butt;stroke-linejoin:miter;stroke-miterlimit:4;stroke-dasharray:none;stroke-opacity:1"
       d="m 563.85238,341.88376 c -1.88473,-13.85575 2.8595,-74.32915 15.76398,-89.04393 12.90448,-14.7147 24.60266,-17.59432 40.81476,-14.37941 16.21211,3.21498 23.23334,20.37796 24.99176,34.87544 1.75842,14.49749 -0.73148,25.93921 -3.75874,38.18931 -3.02744,12.25016 -14.1294,36.49789 -22.16229,50.88921 -8.03272,14.39136 -24.02436,37.88167 -34.72791,50.61702 -10.70338,12.73537 -6.65953,-2.05584 -17.63448,3.68136"
       id="path14251"
       inkscape:connector-curvature="0"
       sodipodi:nodetypes="czzzzzzc" />
    <path
       sodipodi:nodetypes="sszzsszsssscszzszssss"
       style="opacity:1;fill:#96e6d9;fill-opacity:1;stroke:none;stroke-width:4.70504284;stroke-linecap:round;stroke-miterlimit:4;stroke-dasharray:none;stroke-opacity:1"
       d="m 802.68589,217.30712 c 5.06008,13.12145 7.67155,29.99963 6.158,44.20935 -1.23248,11.57106 -3.75488,26.53797 -7.51063,37.7642 -3.75558,11.22623 -6.92303,19.00553 -12.46022,30.02847 -5.53737,11.02295 -15.56864,22.32421 -21.70591,27.62305 -13.48558,11.64349 -30.43145,17.25222 -47.20042,20.27398 -14.65465,2.64077 -25.32166,3.48168 -42.78996,2.85712 -17.4683,-0.62451 -34.47091,-3.02063 -50.62241,-7.81064 -9.74705,-2.89066 -22.7759,-7.83582 -32.11135,-13.70822 -7.35886,-4.62894 -16.70732,-9.10688 -22.86795,-14.94541 -6.31856,-5.98802 -13.82585,-10.69182 -18.09332,-17.75931 -8.02059,-13.2829 -10.21467,-30.00049 -11.06824,-44.72047 -2.85212,-16.50687 -5.84531,-28.04988 -3.82971,-45.20488 0.71198,-6.0598 0.96195,-10.52683 3.93178,-16.75462 2.96964,-6.22779 8.52791,-12.00431 13.32467,-16.81925 4.79676,-4.81499 13.66898,-9.02349 19.57244,-14.05341 4.71366,-4.01625 13.49612,-12.72454 26.3024,-20.87328 12.80646,-8.14879 44.06987,-18.84354 73.03872,-19.48293 13.49103,-0.29767 37.39945,1.60482 60.81301,8.99914 14.65922,4.62954 28.61893,10.56894 41.27273,22.07895 10.5328,9.58076 19.58473,22.06073 25.84637,38.29816 z"
       id="path14253"
       inkscape:connector-curvature="0"
       inkscape:export-filename="/home/ash/Downloads/swag.png"
       inkscape:export-xdpi="225.4285"
       inkscape:export-ydpi="225.4285" />
    <path
       inkscape:export-ydpi="225.4285"
       inkscape:export-xdpi="225.4285"
       inkscape:export-filename="/home/ash/Downloads/swag.png"
       sodipodi:nodetypes="ccssssssssssssc"
       inkscape:connector-curvature="0"
       id="path14255"
       d="m 596.75599,244.62253 c 0,4.83885 -1.30081,9.37352 -3.5713,13.27259 -6.13938,4.99348 -17.33269,5.92552 -27.36344,5.1493 -3.51649,-0.27195 -7.33865,-0.16495 -10.13175,-0.82333 -3.71939,-0.87707 -6.52093,-2.43227 -7.66821,-3.64851 -4.4665,-4.73496 -4.1842,-8.31603 -4.1842,-13.43784 0,-2.82681 1.05786,-5.75472 1.87963,-8.30781 1.08703,-3.37638 2.42561,-6.76294 4.6817,-9.39232 2.51906,-2.93567 5.16038,-5.51537 8.73432,-7.11661 3.28409,-1.4714 7.43545,-2.08473 11.26621,-2.08473 3.83375,0 7.37414,1.02446 10.66051,2.49811 2.67576,1.19996 5.21766,2.6288 7.33181,4.60682 2.80557,2.62511 5.03777,5.85677 6.48825,9.48622 1.21052,3.02939 1.87647,6.33591 1.87647,9.79816 z"
       style="opacity:1;fill:#1c594f;fill-opacity:1;stroke:none;stroke-width:1.63795006;stroke-linecap:butt;stroke-linejoin:miter;stroke-miterlimit:4;stroke-dasharray:none;stroke-dashoffset:0;stroke-opacity:1" />
    <path
       style="opacity:1;fill:#fff9f9;fill-opacity:1;stroke:none;stroke-width:2.03045869;stroke-linecap:butt;stroke-linejoin:miter;stroke-miterlimit:4;stroke-dasharray:none;stroke-dashoffset:0;stroke-opacity:1"
       d="m 594.53802,238.35219 c 0,5.96138 -1.62246,11.54804 -4.45456,16.35161 -7.65819,6.15178 -21.61983,7.30004 -34.13169,6.34376 -4.38622,-0.33517 -9.15364,-0.20309 -12.63764,-1.01433 -4.63936,-1.08051 -8.1339,-2.99649 -9.56506,-4.49486 -5.57109,-5.83338 -5.2187,-10.24514 -5.2187,-16.55511 0,-3.48258 1.31943,-7.08965 2.34444,-10.23505 1.3558,-4.15956 3.02551,-8.33178 5.83969,-11.57106 3.14198,-3.61668 6.43643,-6.79483 10.8945,-8.76753 4.09655,-1.8127 9.2745,-2.56833 14.05282,-2.56833 4.78217,0 9.19808,1.26207 13.29709,3.07761 3.33784,1.4783 6.50845,3.23859 9.14539,5.67549 3.49945,3.2341 6.28395,7.21539 8.09296,11.68681 1.51003,3.73213 2.34076,7.8057 2.34076,12.07108 z"
       id="path14257"
       inkscape:connector-curvature="0"
       sodipodi:nodetypes="ccssssssssssssc"
       inkscape:export-filename="/home/ash/Downloads/swag.png"
       inkscape:export-xdpi="225.4285"
       inkscape:export-ydpi="225.4285" />
    <path
       style="fill:none;stroke:#ff7373;stroke-width:1.75666738px;stroke-linecap:round;stroke-linejoin:round;stroke-opacity:1"
       d="m 586.6072,249.34623 -0.17216,-6.87253 -2.2336,-0.34362 c 0,0 3.9518,-3.60807 3.43639,-5.66982 -0.5154,-2.06176 -2.5772,-4.98257 -2.5772,-4.98257 0,0 -2.06181,-0.85907 -1.7182,-2.92083 0.3436,-2.06175 0.85901,-6.01344 0.85901,-6.01344 l -2.74883,-1.20271"
       id="path14313"
       inkscape:connector-curvature="0" />
    <path
       style="fill:none;stroke:#ff7373;stroke-width:1.75666738px;stroke-linecap:round;stroke-linejoin:round;stroke-opacity:1"
       d="m 586.09179,240.24014 -4.46703,1.03088 -0.17215,-7.04433 -2.92099,0.17181 c 0,0 -1.88982,-6.18526 -1.88982,-5.498"
       id="path14315"
       inkscape:connector-curvature="0" />
    <path
       style="fill:none;stroke:#ff7373;stroke-width:1.75666738px;stroke-linecap:round;stroke-linejoin:round;stroke-opacity:1"
       d="m 580.76557,237.49113 -2.5772,0.85906 c 0,0 1.20279,2.06177 0,2.23357 -1.20262,0.1718 -3.26442,0.68726 -3.26442,0.68726"
       id="path14317"
       inkscape:connector-curvature="0" />
    <path
       style="fill:none;stroke:#ff7373;stroke-width:1.75666738px;stroke-linecap:round;stroke-linejoin:round;stroke-opacity:1"
       d="m 561.99102,254.72602 c 0,0 -2.85512,1.77917 -3.54232,2.29461 -0.68739,0.51544 -4.92869,-0.83673 -4.92869,-0.83673 l -3.2609,1.79466 c 0,0 -0.13702,-3.62028 -0.99603,-2.93304 -0.85901,0.68725 -2.95893,1.43348 -3.64614,-0.62829 -0.68721,-2.06175 -4.64076,-2.16388 -4.64076,-2.16388 l -2.20725,2.19545 -0.74641,-5.16153"
       id="path14321"
       inkscape:connector-curvature="0"
       sodipodi:nodetypes="ccccscccc" />
    <path
       sodipodi:nodetypes="cssscsssc"
       inkscape:connector-curvature="0"
       id="path14259"
       d="m 570.65314,244.62019 c -3.3786,4.90249 -8.70938,8.12657 -14.17788,8.87249 -4.84103,0.6606 -10.1806,-0.73945 -14.52097,-3.73058 -5.79964,-3.99674 -9.48776,-10.49619 -9.40203,-17.04695 0.0509,-3.88914 2.27716,-7.86154 4.64989,-11.30461 4.34811,-6.30949 10.98585,-9.83828 18.10738,-9.13648 3.31097,0.32621 6.77775,1.99551 9.71086,4.01696 4.81678,3.31938 7.50571,8.25236 8.31466,13.61368 0.74342,4.92646 0.36819,10.28945 -2.68191,14.71549 z"
       style="opacity:1;fill:#000000;fill-opacity:1;stroke:none;stroke-width:11.21362019;stroke-linecap:round;stroke-linejoin:miter;stroke-miterlimit:4;stroke-dasharray:none;stroke-dashoffset:0;stroke-opacity:1" />
    <path
       inkscape:export-ydpi="225.4285"
       inkscape:export-xdpi="225.4285"
       inkscape:export-filename="/home/ash/Downloads/swag.png"
       style="opacity:1;fill:#1c594f;fill-opacity:1;stroke:none;stroke-width:1.63229501;stroke-linecap:butt;stroke-linejoin:miter;stroke-miterlimit:4;stroke-dasharray:none;stroke-dashoffset:0;stroke-opacity:1"
       d="m 735.45665,255.67069 c 0,6.94306 -0.85602,13.70748 -5.04427,18.12757 -4.18807,4.42013 -8.6342,6.92289 -14.85034,8.40657 -4.42013,1.05505 -10.57074,0.74567 -15.32499,0.84508 -5.03584,0.10522 -10.4151,-0.87659 -15.27809,-1.74035 -7.53382,-1.33821 -14.83418,-2.0872 -19.11623,-6.84491 -4.28187,-4.7577 -5.42792,-12.36163 -5.42792,-19.71072 0,-6.23692 1.43976,-12.1216 4.01697,-17.30946 2.51238,-5.05723 6.30995,-8.94286 10.70407,-12.35635 4.23024,-3.28633 8.69937,-6.10278 14.10376,-7.43537 2.53188,-0.62427 5.58796,-0.76389 8.33837,-0.76389 5.96881,0 12.33111,0.96519 17.3564,3.41103 4.74722,2.31053 8.63402,6.3493 11.89229,10.39476 3.05467,3.79268 5.0332,8.39836 6.53393,13.01482 1.15922,3.56587 2.09605,7.89054 2.09605,11.96122 z"
       id="path14261"
       inkscape:connector-curvature="0"
       sodipodi:nodetypes="szssszsssssssss" />
    <path
       sodipodi:nodetypes="szssszsssssssss"
       inkscape:connector-curvature="0"
       id="path14263"
       d="m 753.4372,250.58777 c 0,7.59911 -1.02625,15.00268 -6.04786,19.84038 -5.02126,4.83776 -10.35204,7.577 -17.80505,9.20088 -5.29969,1.15474 -12.67401,0.81609 -18.37422,0.92495 -6.03784,0.11507 -12.48744,-0.95945 -18.31782,-1.90482 -9.03279,-1.46464 -17.78591,-2.28441 -22.91977,-7.49166 -5.13403,-5.20722 -6.5081,-13.52964 -6.5081,-21.57311 0,-6.82625 1.72645,-13.26696 4.81643,-18.94497 3.01216,-5.53506 7.56544,-9.78785 12.83386,-13.52384 5.07203,-3.59685 10.43004,-6.67941 16.90968,-8.13792 3.0357,-0.68329 6.69976,-0.83609 9.99772,-0.83609 7.15632,0 14.78429,1.05637 20.80949,3.73331 5.69177,2.52884 10.35221,6.94925 14.25869,11.37693 3.66212,4.15106 6.03468,9.19194 7.83386,14.24455 1.39005,3.90283 2.51309,8.6361 2.51309,13.09141 z"
       style="opacity:1;fill:#fff9f9;fill-opacity:1;stroke:none;stroke-width:1.86985219;stroke-linecap:butt;stroke-linejoin:miter;stroke-miterlimit:4;stroke-dasharray:none;stroke-dashoffset:0;stroke-opacity:1"
       inkscape:export-filename="/home/ash/Downloads/swag.png"
       inkscape:export-xdpi="225.4285"
       inkscape:export-ydpi="225.4285" />
    <path
       sodipodi:nodetypes="ssscssssscsss"
       inkscape:connector-curvature="0"
       id="path14265"
       d="m 746.99163,242.3419 c 0,5.14776 -1.659,9.97638 -4.04912,14.14274 -2.32582,4.05384 -6.20507,7.18867 -10.15371,9.67233 -4.38324,2.75744 -8.98764,4.64461 -14.54872,4.64461 -4.24516,0 -8.85712,-0.73392 -12.47585,-2.40126 -4.77919,-2.20103 -9.13608,-5.78504 -12.04354,-10.1142 -3.04184,-4.52941 -3.9402,-10.07821 -3.9402,-15.94422 0,-4.13583 0.88255,-8.06544 2.46864,-11.61122 2.68999,-6.01204 6.99171,-11.60871 12.86373,-14.54586 3.82672,-1.91392 8.55778,-2.3026 13.12722,-2.3026 4.92499,0 8.97358,1.44565 13.01374,3.64719 4.93202,2.68763 9.56523,6.59682 12.18425,11.57096 2.08288,3.95526 3.55356,8.46074 3.55356,13.24153 z"
       style="opacity:1;fill:#000000;fill-opacity:1;stroke:none;stroke-width:15.70188332;stroke-linecap:round;stroke-linejoin:miter;stroke-miterlimit:4;stroke-dasharray:none;stroke-dashoffset:0;stroke-opacity:1" />
    <path
       style="fill:#1c594f;fill-opacity:1;stroke:none;stroke-width:3.13669562px;stroke-linecap:butt;stroke-linejoin:miter;stroke-opacity:1"
       d="m 559.75232,291.11661 c 2.648,-1.59872 1.89492,2.89555 4.70506,4.70503 2.81014,1.80951 6.0742,4.76443 9.60616,6.6655 3.53178,1.90104 7.00365,2.3456 11.5666,4.31295 4.56294,1.96734 13.00039,4.48537 18.09332,5.55649 5.09311,1.07111 13.25757,1.62782 19.67784,2.13472 6.42009,0.50694 10.50979,1.06811 19.09532,1.08316 8.58554,0.0158 17.69579,-1.66491 25.07959,-2.50098 7.38398,-0.83607 11.86559,-1.25821 18.03606,-2.74462 6.17047,-1.48638 14.13959,-4.42692 18.82023,-6.27339 4.68046,-1.84647 8.63824,-5.69434 9.40994,-4.31295 0.77188,1.38137 -7.58529,6.14512 -11.97538,8.58244 -4.39009,2.43729 -8.188,3.05464 -13.70622,4.6505 -5.51822,1.59584 -12.2524,1.86247 -18.52617,2.84264 -6.27376,0.98015 -9.50111,1.6045 -15.53579,2.10396 -6.03468,0.49945 -16.16538,0.98378 -19.55926,0.4741 -3.39388,-0.5096 -19.1749,-0.96435 -22.55034,-1.57119 -3.37561,-0.6069 -12.60619,-2.18212 -20.39877,-4.77724 -7.7924,-2.5953 -19.873,-6.40539 -24.19247,-11.03094 -4.31947,-4.62557 -10.29372,-8.30149 -7.64572,-9.90021 z"
       id="path14267"
       inkscape:connector-curvature="0"
       sodipodi:nodetypes="czzzzzzzzzzzzzzzzzzzc" />
    <path
       sodipodi:nodetypes="czzzzzcc"
       inkscape:connector-curvature="0"
       id="path14269"
       d="m 715.58031,395.76753 c -1.69694,-11.55422 -1.6936,-23.42771 -2.53715,-34.661 -0.84356,-11.23331 -2.84071,-24.09157 0.42283,-33.61069 3.26353,-9.51913 6.89825,-17.50937 16.06876,-22.05705 9.17051,-4.54764 23.35384,-3.57427 32.98301,-1.40041 9.62917,2.17384 19.46809,3.13277 22.41156,12.25388 2.94365,9.12111 4.66993,33.28111 9.09673,45.34455 z"
       style="fill:#1c594f;fill-opacity:1;stroke:none;stroke-width:5.01210356;stroke-linecap:round;stroke-linejoin:miter;stroke-miterlimit:4;stroke-dasharray:none;stroke-opacity:1" />
    <path
       style="fill:#ff9197;fill-opacity:1;fill-rule:evenodd;stroke:none;stroke-width:2.88496852"
       d="m 813.22607,352.86514 -116.58422,-16.4914 c -18.86274,-2.66838 -53.32574,56.70332 -27.6329,84.744 25.69284,28.04035 135.4582,-31.41427 135.4582,-31.41427 11.26217,-14.85221 18.17167,-35.50672 8.75892,-36.83833 z"
       id="path14271"
       inkscape:connector-curvature="0"
       sodipodi:nodetypes="sszss"
       inkscape:export-filename="/home/ash/Downloads/gopher_benthos.png"
       inkscape:export-xdpi="173.51286"
       inkscape:export-ydpi="173.51286" />
    <path
       style="fill:#ffc7c7;fill-opacity:1;stroke:none;stroke-width:1.72421205px;stroke-linecap:butt;stroke-linejoin:miter;stroke-opacity:1"
       d="m 878.09646,268.20927 c 44.66678,18.82149 22.31179,73.7535 -2.49288,104.69915 -24.80467,30.94565 -93.33631,99.5686 -130.87401,28.66762 -37.53752,-70.90098 88.69994,-152.18827 133.36689,-133.36677 z"
       id="path14273"
       inkscape:connector-curvature="0"
       sodipodi:nodetypes="zzzz"
       inkscape:export-filename="/home/ash/Downloads/gopher_benthos.png"
       inkscape:export-xdpi="173.51286"
       inkscape:export-ydpi="173.51286" />
    <path
       style="fill:#96e6d9;fill-opacity:1;stroke:none;stroke-width:4.70504284;stroke-linecap:round;stroke-linejoin:miter;stroke-miterlimit:4;stroke-dasharray:none;stroke-opacity:1"
       d="m 807.1083,415.95509 c 1.11935,15.19414 -22.81665,42.52214 -38.16799,43.29079 -18.61206,0.93185 -30.70514,-16.08409 -35.10717,-21.22389 -10.34168,-12.07443 -12.77255,-33.51464 -14.35039,-44.46567 -1.57784,-10.95101 -1.57468,-22.20463 -2.35903,-32.85149 -0.78418,-10.64686 -2.64115,-22.83383 0.39314,-31.856 3.03447,-9.02218 6.41377,-16.59526 14.94011,-20.90552 8.52651,-4.31023 21.71381,-3.3877 30.66649,-1.32732 8.95286,2.06034 18.1007,2.96922 20.83759,11.61415 2.73689,8.64493 4.34178,31.54363 8.45782,42.97729 4.11588,11.43366 13.57026,39.55351 14.68943,54.74766 z"
       id="path14275"
       inkscape:connector-curvature="0"
       sodipodi:nodetypes="zsszzzzzzzz" />
    <path
       sodipodi:nodetypes="sszss"
       inkscape:connector-curvature="0"
       id="path14277"
       d="m 516.92898,324.25581 108.24901,11.36221 c 17.51468,1.83835 35.1019,62.81185 5.77136,82.1951 -29.33038,19.38257 -114.42932,-58.55701 -114.42932,-58.55701 -6.76809,-15.84569 -8.33099,-35.91809 0.40895,-35.0003 z"
       style="fill:#ff9197;fill-opacity:1;fill-rule:evenodd;stroke:none;stroke-width:3.7400558"
       inkscape:export-filename="/home/ash/Downloads/gopher_benthos.png"
       inkscape:export-xdpi="173.51286"
       inkscape:export-ydpi="173.51286" />
    <path
       sodipodi:nodetypes="zzzz"
       inkscape:connector-curvature="0"
       id="path14279"
       d="m 578.48805,371.88511 c -2.06109,41.46798 -33.9952,33.72904 -54.05757,19.07323 -20.0622,-14.65546 -66.84682,-58.55959 -36.89669,-104.54916 29.94995,-45.98972 93.01554,44.00811 90.95426,85.47593 z"
       style="fill:#ffc7c7;fill-opacity:1;stroke:none;stroke-width:1.17733765px;stroke-linecap:butt;stroke-linejoin:miter;stroke-opacity:1"
       inkscape:export-filename="/home/ash/Downloads/gopher_benthos.png"
       inkscape:export-xdpi="173.51286"
       inkscape:export-ydpi="173.51286" />
    <path
       sodipodi:nodetypes="cssssssssssssssssssssc"
       inkscape:connector-curvature="0"
       id="path14281"
       d="m 625.00109,192.72232 c -5.70952,6.50155 -6.85592,8.96603 -12.2791,16.98335 -2.55139,3.77188 -6.54815,8.84375 -9.5185,12.72291 -3.28374,4.28833 -7.89868,10.4341 -11.51057,14.61514 -4.87124,5.63869 -7.21252,8.362 -12.26839,13.2709 -2.7158,2.63692 -8.63208,7.51738 -11.29625,9.80753 -2.21164,1.90121 -5.59744,3.43051 -7.72477,4.83528 -4.447,2.93645 -5.92998,2.23991 -9.75477,3.70019 -6.68236,2.5513 -12.49447,4.21748 -15.83671,6.19343 -2.80821,1.66025 -3.18396,5.17316 -2.44317,9.67478 0.49766,3.02389 2.80715,7.69662 5.42283,10.08063 1.45733,1.32817 3.84131,2.9287 5.89151,3.99472 3.77473,1.96265 8.6205,3.76613 13.47733,5.04451 5.13615,1.35193 10.478,1.4299 15.84865,2.07693 5.40703,0.65144 10.52314,1.5326 15.1474,1.5326 4.87738,0 10.72515,0.0516 16.35281,0.2017 6.08896,0.1625 12.10625,-0.29327 17.52417,-0.99274 6.67744,-0.86246 14.47125,-3.29352 17.39873,-7.29505 1.5731,-2.15036 1.85645,-4.9264 1.67744,-8.43159 -0.23715,-4.64294 -1.25953,-8.47931 -3.43375,-10.61429 -3.08243,-3.02677 -7.61972,-5.94939 -11.70942,-6.02419 -5.58339,-0.10242 -12.87795,0.16056 -12.87795,0.16056"
       style="fill:#1c594f;fill-opacity:1;stroke:none;stroke-width:4.70504284;stroke-linecap:round;stroke-linejoin:miter;stroke-miterlimit:4;stroke-dasharray:none;stroke-opacity:1" />
    <path
       sodipodi:nodetypes="zzzzzzzzzzz"
       inkscape:connector-curvature="0"
       id="path14283"
       d="m 568.94689,374.4998 c -1.52356,-3.25119 -6.23371,-12.97596 -9.45052,-21.10752 -3.21698,-8.13151 -4.75881,-16.09787 -7.50835,-22.35707 -2.74953,-6.2592 -6.89878,-17.86376 -12.42139,-21.79063 -5.52244,-3.92686 -9.20213,-3.30013 -15.00089,-1.42301 -5.79858,1.87709 -8.10315,10.42011 -8.85992,17.22446 -0.75695,6.80434 -0.62204,15.85628 -0.59147,22.04661 0.0316,6.19031 2.38696,18.1539 4.24885,27.37963 1.86189,9.22574 12.8899,65.30345 39.6594,63.60316 26.76933,-1.70027 28.14796,-27.45662 27.09571,-33.40333 -1.05241,-5.94671 -15.64804,-26.9211 -17.17142,-30.1723 z"
       style="fill:#96e6d9;fill-opacity:1;stroke:none;stroke-width:4.70504284;stroke-linecap:round;stroke-linejoin:miter;stroke-miterlimit:4;stroke-dasharray:none;stroke-opacity:1" />
    <path
       style="fill:#96e6d9;fill-opacity:1;stroke:none;stroke-width:4.70504284;stroke-linecap:round;stroke-linejoin:miter;stroke-miterlimit:4;stroke-dasharray:none;stroke-opacity:1"
       d="m 626.38728,189.6726 c -2.52099,6.2243 -6.83625,13.78998 -12.25943,21.80731 -2.55138,3.77188 -5.348,7.64373 -8.31835,11.52289 -3.28374,4.28831 -6.19172,8.68361 -9.80361,12.86466 -4.87124,5.63869 -9.16892,9.39966 -14.22479,14.30853 -2.7158,2.63695 -7.3845,7.37876 -10.04849,9.66891 -2.21164,1.9012 -4.48863,3.43052 -6.61596,4.83529 -4.447,2.93643 -8.86484,4.01822 -12.68963,5.47849 -6.68237,2.55129 -11.27061,3.85906 -14.61284,5.83505 -2.80804,1.66019 -3.62366,3.70569 -2.88287,8.20731 0.49766,3.02387 2.61111,5.40149 5.22679,7.78549 1.45733,1.32818 2.73249,2.92872 4.7827,3.99474 3.77455,1.96263 8.20434,3.76611 13.06135,5.04451 5.13614,1.3519 11.0324,1.84575 16.40306,2.49278 5.40702,0.65143 10.38454,1.25537 15.00879,1.25537 4.87739,0 10.44795,0.19014 16.07561,0.34018 6.08896,0.16249 12.24485,0.26129 17.66277,-0.4382 6.67744,-0.86245 12.42965,-2.10336 15.35713,-6.10488 1.5731,-2.15037 1.60296,-5.38986 1.42396,-8.89504 -0.23715,-4.64293 -1.64178,-7.32683 -3.81601,-9.4618 -3.08242,-3.02677 -6.53445,-5.14143 -10.62415,-5.21623 -5.58357,-0.10224 -11.01852,1.8953 -11.01852,1.8953"
       id="path14285"
       inkscape:connector-curvature="0"
       sodipodi:nodetypes="cssssssssssssssssssssc" />
    <path
       sodipodi:nodetypes="cccccscccc"
       style="fill:none;stroke:#ff7373;stroke-width:1.75666738px;stroke-linecap:round;stroke-linejoin:round;stroke-opacity:1"
       d="m 676.02947,271.7524 3.01093,0.0815 -1.20262,-4.46713 0.85901,-7.38795 -5.15441,-4.12351 c 0,0 2.0618,-5.3262 2.0618,-6.01346 0,-0.68724 1.7182,-11.51146 1.20262,-12.37052 -0.51541,-0.85906 -5.84163,-4.12351 -1.54622,-3.60807 4.29523,0.51544 7.38801,-3.9517 7.38801,-3.9517 l 0.34361,-4.63895"
       id="path14329"
       inkscape:connector-curvature="0" />
    <path
       style="fill:none;stroke:#ff7373;stroke-width:1.75666738px;stroke-linecap:round;stroke-linejoin:round;stroke-opacity:1"
       d="m 679.0404,261.00978 3.60819,3.26445 0.17216,-6.70071 2.92081,3.7799 c 0,0 -1.89,-2.74901 -1.5464,-4.29534 0.34361,-1.5463 -0.3436,-4.46713 -0.3436,-4.46713 l 2.74901,-2.57719 c 0,0 -2.74901,-1.54632 -2.74901,-2.57719 0,-1.03088 2.74901,-2.57719 2.74901,-2.57719"
       id="path14331"
       inkscape:connector-curvature="0" />
    <path
       style="fill:none;stroke:#ff7373;stroke-width:1.75666738px;stroke-linecap:round;stroke-linejoin:round;stroke-opacity:1"
       d="m 682.64859,265.82055 c 0,0 -1.54639,4.46714 -0.34378,4.1235 1.20279,-0.34362 5.32622,-3.09263 5.32622,-3.09263 l 0.51541,4.29533 6.529,-0.51544"
       id="path14333"
       inkscape:connector-curvature="0" />
    <path
       sodipodi:nodetypes="cscccc"
       style="fill:none;stroke:#ff7373;stroke-width:1.75666738px;stroke-linecap:round;stroke-linejoin:round;stroke-opacity:1"
       d="m 736.47657,276.02563 c -0.83459,-0.45152 -1.58873,-0.57224 -2.28419,-0.41175 -2.23361,0.51545 -1.7182,-3.95169 -1.7182,-3.95169 0,0 -4.12342,1.20269 -4.81063,1.71813 -0.68739,0.51544 -1.5464,0.1718 -3.09262,0.51544 -1.54639,0.34362 -13.05783,0 -13.05783,0"
       id="path14335"
       inkscape:connector-curvature="0" />
    <path
       style="fill:none;stroke:#ff7373;stroke-width:1.75666738px;stroke-linecap:round;stroke-linejoin:round;stroke-opacity:1"
       d="m 734.19238,275.44206 c 0,0 6.18522,-1.3745 4.81081,-2.92081 -1.3746,-1.54632 -4.98261,-3.77989 -3.9518,-3.95169 1.03099,-0.1718 6.01342,-1.71814 6.01342,-1.71814 l 3.78,-4.1235 c 0,0 -0.68721,-2.57721 0.17215,-3.26445 0.85901,-0.68726 6.52883,0 6.52883,0 l -2.2336,-6.35708"
       id="path14337"
       inkscape:connector-curvature="0" />
    <path
       sodipodi:nodetypes="cccc"
       inkscape:connector-curvature="0"
       id="path14365"
       d="m 546.14096,255.5324 -3.42761,-0.41658 c 0,0 1.38495,2.66921 0.18216,2.84101 -1.20261,0.1718 -4.11481,-0.89211 -4.11481,-0.89211"
       style="fill:none;stroke:#ff7373;stroke-width:1.75666738px;stroke-linecap:round;stroke-linejoin:round;stroke-opacity:1" />
  </g>
</svg>
