<?xml version="1.0" standalone="no"?>
<!DOCTYPE svg PUBLIC "-//W3C//DTD SVG 20010904//EN"
 "http://www.w3.org/TR/2001/REC-SVG-20010904/DTD/svg10.dtd">
<svg version="1.0" xmlns="http://www.w3.org/2000/svg"
 width="700.000000pt" height="700.000000pt" viewBox="0 0 700.000000 700.000000"
 preserveAspectRatio="xMidYMid meet">
<metadata>
Created by potrace 1.11, written by Peter Selinger 2001-2013
</metadata>
<g transform="translate(0.000000,700.000000) scale(0.100000,-0.100000)"
fill="#000000" stroke="none">
<path d="M3365 6403 c-195 -14 -551 -74 -765 -129 -639 -167 -945 -327 -1433
-752 -167 -145 -207 -176 -412 -312 -139 -92 -190 -133 -277 -221 -235 -238
-327 -402 -362 -645 -52 -354 -46 -545 31 -1007 16 -96 15 -98 -5 -120 -69
-73 -52 -247 37 -385 35 -54 42 -75 61 -189 39 -234 93 -412 176 -578 72 -145
131 -222 256 -332 57 -50 153 -134 213 -187 126 -111 254 -198 510 -347 264
-154 260 -152 385 -209 320 -144 681 -255 1030 -314 1002 -172 2020 -78 2664
246 201 101 355 217 527 396 192 201 314 373 433 610 272 543 428 1099 478
1700 25 307 -41 741 -158 1040 -201 512 -543 935 -971 1201 -449 278 -1143
472 -1897 531 -120 9 -406 11 -521 3z m581 -93 c723 -57 1428 -265 1848 -544
663 -442 1073 -1254 1043 -2066 -10 -278 -73 -653 -158 -950 -100 -347 -297
-800 -443 -1019 -131 -197 -330 -418 -482 -537 -406 -317 -1027 -494 -1791
-511 -802 -18 -1532 122 -2126 407 -116 55 -480 268 -613 358 -49 32 -136 101
-194 152 -58 51 -151 133 -208 183 -57 50 -124 119 -150 154 -94 125 -187 346
-237 564 -34 146 -34 143 12 123 169 -72 340 -113 568 -134 106 -10 136 -17
260 -65 356 -135 641 -205 920 -224 481 -34 523 -35 733 -22 114 6 250 18 302
25 52 8 200 28 329 45 129 18 255 37 280 43 123 29 272 73 326 95 127 53 365
208 365 238 0 25 -39 17 -99 -19 -86 -52 -127 -71 -257 -119 -279 -103 -373
-124 -787 -177 -412 -52 -563 -64 -727 -56 -150 8 -559 41 -690 57 -88 10
-343 73 -440 108 l-55 20 290 0 c387 2 570 20 740 76 217 71 281 177 246 404
-21 132 -57 190 -161 260 -110 73 -118 75 -307 79 -162 3 -173 3 -173 -15 0
-10 -3 -28 -6 -40 l-6 -21 74 20 c90 25 246 30 298 9 61 -25 158 -100 191
-147 17 -25 38 -69 45 -98 17 -62 18 -196 3 -251 -15 -53 -82 -117 -151 -143
-160 -60 -334 -73 -823 -62 -531 12 -896 55 -1110 130 -170 61 -233 97 -326
190 -90 90 -119 137 -127 206 -10 93 18 144 108 189 25 12 146 60 270 105 250
91 311 119 420 194 80 55 583 534 677 645 75 88 360 470 449 601 125 184 264
427 264 461 0 21 -111 -122 -213 -276 -98 -146 -303 -423 -454 -613 l-75 -94
-21 41 c-12 22 -40 63 -62 91 -109 139 -332 242 -514 239 l-76 -2 85 -7 c152
-12 314 -84 412 -182 54 -54 138 -186 138 -218 0 -14 -233 -290 -245 -290 -2
0 1 15 6 32 25 88 1 217 -56 309 -104 164 -262 248 -440 236 -241 -17 -388
-172 -402 -424 -10 -168 25 -273 121 -361 92 -83 197 -122 334 -122 41 0 61
-4 52 -9 -8 -4 -72 -5 -143 0 -201 12 -300 54 -364 155 -36 56 -42 76 -53 176
-6 65 -7 67 -9 23 -3 -138 44 -257 127 -321 54 -42 150 -74 245 -81 43 -3 80
-9 82 -14 7 -11 -111 -74 -175 -94 -30 -9 -119 -39 -198 -66 -101 -34 -144
-45 -147 -36 -2 6 -16 89 -30 182 -36 228 -43 465 -21 675 37 349 103 488 358
755 82 86 130 125 267 217 208 140 258 178 401 303 414 365 659 508 1141 664
281 91 688 173 959 194 105 8 437 6 556 -3z"/>
<path d="M3980 4643 c-121 -18 -248 -78 -382 -178 -168 -126 -274 -268 -331
-445 -68 -209 -59 -506 22 -674 78 -165 171 -210 566 -275 229 -37 362 -45
550 -32 196 14 308 48 417 129 160 119 213 220 223 422 l4 95 -9 -79 c-19
-160 -64 -256 -160 -335 -76 -64 -127 -93 -217 -125 -200 -71 -606 -55 -1006
38 -234 55 -330 191 -353 501 -16 220 48 445 172 607 92 119 289 263 430 314
37 14 105 28 153 33 l86 8 -70 0 c-38 0 -81 -1 -95 -4z"/>
<path d="M4040 4469 c-162 -42 -301 -171 -390 -362 -91 -194 -92 -440 -2 -625
35 -73 166 -207 250 -256 164 -94 377 -118 548 -60 159 54 330 187 409 319
177 295 87 671 -208 874 -61 42 -198 105 -259 120 -76 18 -261 13 -348 -10z"/>
</g>
</svg>
