<?xml version="1.0" standalone="no"?>
<!DOCTYPE svg PUBLIC "-//W3C//DTD SVG 20010904//EN"
 "http://www.w3.org/TR/2001/REC-SVG-20010904/DTD/svg10.dtd">
<svg version="1.0" xmlns="http://www.w3.org/2000/svg"
 width="700.000000pt" height="700.000000pt" viewBox="0 0 700.000000 700.000000"
 preserveAspectRatio="xMidYMid meet">
<metadata>
Created by potrace 1.11, written by Peter Selinger 2001-2013
</metadata>
<g transform="translate(0.000000,700.000000) scale(0.100000,-0.100000)"
fill="#000000" stroke="none">
<path d="M3410 6423 c-298 -15 -762 -106 -1100 -215 -480 -155 -743 -310
-1184 -697 -141 -123 -194 -163 -393 -294 -131 -86 -182 -127 -268 -214 -59
-60 -140 -152 -180 -205 -137 -180 -178 -302 -210 -617 -29 -296 -19 -437 74
-976 17 -93 35 -231 41 -305 28 -357 98 -631 222 -875 76 -148 144 -222 433
-469 181 -155 243 -198 540 -373 293 -173 464 -253 750 -352 425 -147 880
-226 1445 -251 832 -38 1607 121 2081 426 231 148 478 402 651 665 206 316
426 866 522 1309 84 383 118 726 96 980 -39 474 -189 895 -455 1274 -314 449
-709 732 -1296 930 -560 188 -1228 286 -1769 259z m440 -253 c690 -43 1362
-228 1784 -492 491 -308 856 -842 982 -1438 52 -248 65 -487 39 -720 -54 -465
-143 -811 -312 -1214 -155 -369 -292 -584 -533 -840 -231 -245 -566 -424 -982
-526 -385 -94 -787 -130 -1223 -110 -518 24 -957 103 -1351 245 -136 49 -335
135 -419 181 -98 54 -431 253 -502 301 -94 63 -312 251 -438 377 -89 89 -108
114 -157 211 -31 61 -70 151 -88 200 -30 88 -72 247 -65 253 1 2 20 -4 41 -13
143 -62 282 -98 439 -115 89 -9 127 -19 200 -50 230 -98 491 -179 726 -225
170 -33 690 -69 869 -60 172 8 337 23 450 41 52 8 179 26 281 39 257 34 452
85 579 151 82 43 277 189 393 295 142 131 116 133 -135 8 -207 -104 -414 -183
-598 -228 -204 -50 -710 -112 -970 -118 -294 -7 -833 37 -979 80 -37 11 -23
12 141 15 365 5 685 62 785 138 47 36 69 76 88 156 17 77 19 163 5 262 -13 89
-67 193 -140 266 -107 109 -206 147 -402 156 -73 3 -138 2 -145 -3 -12 -8 -33
-113 -33 -165 l0 -27 48 15 c26 8 95 18 154 21 106 6 109 5 170 -25 76 -38
154 -111 181 -172 25 -55 36 -228 18 -283 -31 -94 -112 -143 -291 -177 -113
-22 -285 -27 -635 -19 -286 6 -406 13 -585 34 -327 38 -438 65 -615 150 -77
37 -103 56 -172 128 -69 72 -85 95 -99 143 -20 71 -13 138 19 172 34 36 112
72 341 156 234 86 309 122 411 198 89 68 533 496 617 596 192 228 493 654 594
838 38 70 48 100 60 181 8 53 13 100 12 104 -5 15 -103 -112 -228 -296 -172
-252 -433 -592 -624 -813 l-90 -103 -19 62 c-51 166 -194 298 -360 330 -72 15
-195 0 -262 -32 -99 -47 -180 -148 -211 -263 -17 -62 -18 -195 -3 -268 22
-108 100 -196 222 -253 l72 -33 -45 -20 c-25 -11 -61 -23 -80 -27 -19 -4 -97
-30 -174 -57 -76 -27 -140 -48 -142 -46 -14 14 -37 225 -41 381 -6 202 6 378
37 529 35 170 130 324 319 521 66 68 128 117 278 218 114 78 245 176 321 243
300 264 504 407 723 506 433 195 1033 330 1504 339 44 0 154 -4 245 -9z"/>
<path d="M4050 4429 c-191 -32 -362 -204 -446 -449 -27 -78 -27 -318 0 -404
34 -109 99 -203 190 -274 137 -108 246 -146 416 -145 124 0 214 26 331 95 85
50 205 164 243 229 159 275 91 610 -164 808 -68 53 -218 126 -288 140 -62 13
-204 13 -282 0z"/>
</g>
</svg>
